<svg viewBox="0 0 272 32" fill="none" xmlns="http://www.w3.org/2000/svg">
<g id="logo">
<path fill-rule="evenodd" clip-rule="evenodd" d="M241.977 10.105L232.675 18.7425L242.536 30.3756C242.619 30.437 242.686 30.5174 242.732 30.6101C242.777 30.7028 242.8 30.8051 242.798 30.9084C242.798 31.0852 242.728 31.255 242.604 31.3808C242.48 31.5067 242.311 31.5786 242.135 31.5809H240.738C240.641 31.5808 240.544 31.5598 240.455 31.5191C240.366 31.4784 240.287 31.419 240.223 31.3451L230.868 20.3495L228.486 22.4019V30.9084C228.484 31.086 228.412 31.2558 228.287 31.3814C228.161 31.507 227.991 31.5786 227.814 31.5809H226.767C226.589 31.5786 226.42 31.507 226.294 31.3814C226.169 31.2558 226.097 31.086 226.095 30.9084V0.672713C226.095 0.494358 226.166 0.323309 226.292 0.197193C226.418 0.0710779 226.589 0.0002269 226.767 0.0002269H227.814C227.904 -0.00210561 227.993 0.0135653 228.076 0.046315C228.16 0.0790647 228.236 0.12823 228.3 0.19091C228.365 0.25359 228.416 0.328515 228.451 0.411264C228.485 0.494014 228.503 0.582911 228.503 0.672713V19.3713L229.865 18.0787L239.578 9.11809C239.701 9.00276 239.863 8.9374 240.031 8.93468H241.515C241.649 8.9369 241.78 8.97899 241.891 9.05563C242.002 9.13226 242.087 9.24001 242.137 9.36526C242.186 9.4905 242.197 9.62762 242.169 9.75928C242.141 9.89095 242.074 10.0112 241.977 10.105ZM223.756 8.80372C223.51 8.71394 223.256 8.64956 222.997 8.61158C222.673 8.56372 222.347 8.54036 222.02 8.54171C220.323 8.48266 218.654 8.98618 217.272 9.97402C216.701 10.4044 216.19 10.9096 215.754 11.4762V9.60721C215.752 9.42956 215.68 9.25982 215.555 9.13419C215.429 9.00856 215.259 8.93699 215.082 8.93472H214.017C213.84 8.93699 213.67 9.00856 213.545 9.13419C213.419 9.25982 213.348 9.42956 213.345 9.60721V30.9084C213.348 31.0861 213.419 31.2558 213.545 31.3814C213.67 31.5071 213.84 31.5786 214.017 31.5809H215.082C215.259 31.5786 215.429 31.5071 215.555 31.3814C215.68 31.2558 215.752 31.0861 215.754 30.9084V17.0133C215.901 16.1728 216.153 15.3541 216.504 14.5766C216.825 13.864 217.265 13.2113 217.805 12.6465C218.326 12.1094 218.949 11.6818 219.637 11.3889C220.392 11.0745 221.203 10.9198 222.02 10.9347C222.235 10.9212 222.45 10.9212 222.665 10.9347L223.32 11.0046C223.406 11.0163 223.494 11.0107 223.577 10.9882C223.661 10.9658 223.74 10.9268 223.809 10.8736C223.948 10.7629 224.042 10.6041 224.07 10.4282L224.184 9.47621C224.194 9.33313 224.157 9.19071 224.08 9.06972C224.003 8.94874 223.89 8.85554 223.756 8.80372ZM186.694 9.02201C187.618 9.34006 188.449 9.88331 189.111 10.6028C189.799 11.3853 190.305 12.3096 190.595 13.3102C190.943 14.5517 191.108 15.8375 191.084 17.1268V30.9084C191.084 30.9967 191.066 31.0841 191.032 31.1657C190.999 31.2473 190.949 31.3214 190.887 31.3839C190.824 31.4463 190.75 31.4959 190.669 31.5297C190.587 31.5635 190.5 31.5809 190.412 31.5809H189.356C189.268 31.5809 189.18 31.5635 189.099 31.5297C189.017 31.4959 188.943 31.4463 188.881 31.3839C188.818 31.3214 188.769 31.2473 188.735 31.1657C188.701 31.0841 188.684 30.9967 188.684 30.9084V17.1268C188.71 16.0616 188.574 14.9986 188.282 13.974C188.095 13.2903 187.751 12.6595 187.279 12.1312C186.846 11.6942 186.308 11.3755 185.717 11.2054C185.066 11.0228 184.394 10.9317 183.718 10.9347H183.587C182.875 10.9349 182.167 11.0378 181.484 11.2403C180.87 11.4222 180.282 11.6866 179.739 12.0264C179.262 12.3312 178.827 12.6984 178.447 13.1181C178.088 13.5147 177.766 13.9445 177.487 14.4019C177.244 14.8086 177.043 15.2387 176.885 15.6857C176.757 16.0372 176.678 16.4045 176.65 16.7774V30.9084C176.647 31.086 176.576 31.2558 176.45 31.3814C176.325 31.507 176.155 31.5786 175.978 31.5809H174.913C174.736 31.5786 174.566 31.507 174.44 31.3814C174.315 31.2558 174.243 31.086 174.241 30.9084V16.76C174.269 15.767 174.137 14.776 173.848 13.8255C173.647 13.1685 173.291 12.5695 172.81 12.0788C172.369 11.663 171.833 11.3629 171.248 11.2054C170.545 11.0176 169.82 10.9265 169.092 10.9347C168.131 10.9095 167.179 11.1288 166.326 11.5722C165.552 11.9953 164.865 12.5613 164.301 13.2403C163.752 13.8959 163.302 14.6286 162.966 15.415C162.672 16.0899 162.444 16.7919 162.285 17.5111V30.9084C162.285 31.0852 162.216 31.255 162.092 31.3808C161.968 31.5067 161.799 31.5786 161.622 31.5809H160.54C160.452 31.5809 160.365 31.5635 160.283 31.5297C160.201 31.4959 160.127 31.4463 160.065 31.3839C160.003 31.3214 159.953 31.2473 159.919 31.1657C159.886 31.0841 159.868 30.9967 159.868 30.9084V9.60716C159.868 9.42881 159.939 9.25776 160.065 9.13164C160.191 9.00553 160.362 8.93468 160.54 8.93468H161.622C161.799 8.93697 161.968 9.00884 162.092 9.1347C162.216 9.26057 162.285 9.43031 162.285 9.60716V12.0962C163.316 10.6792 164.748 9.60498 166.396 9.01328C167.637 8.60485 168.951 8.47141 170.249 8.62222C171.546 8.77303 172.795 9.20447 173.909 9.88664C174.83 10.5413 175.537 11.4526 175.943 12.5067C176.086 12.2866 176.241 12.0738 176.405 11.8692C176.949 11.1988 177.587 10.6105 178.299 10.1224C179.043 9.62604 179.854 9.23789 180.708 8.96961C182.663 8.38318 184.749 8.40144 186.694 9.02201ZM210.483 28.8473C210.527 29.1879 210.579 29.511 210.64 29.808C210.67 30.0311 210.722 30.2506 210.797 30.463C210.832 30.5489 210.85 30.6409 210.849 30.7337V30.9084C210.849 30.9967 210.832 31.0842 210.798 31.1657C210.765 31.2473 210.715 31.3215 210.653 31.3839C210.59 31.4464 210.516 31.4959 210.435 31.5297C210.353 31.5635 210.266 31.5809 210.178 31.5809H208.956C208.81 31.5793 208.669 31.531 208.552 31.4429C208.436 31.3549 208.351 31.2318 208.31 31.0918C208.143 30.4598 208.035 29.8137 207.987 29.1617V28.8822L207.743 29.1355C207.148 29.7098 206.482 30.2058 205.762 30.6115C204.971 31.046 204.13 31.3804 203.257 31.6071C202.256 31.8614 201.227 31.9847 200.194 31.9739C199.201 31.9848 198.212 31.8283 197.271 31.511C196.445 31.2255 195.683 30.7804 195.028 30.201C194.392 29.6242 193.887 28.9186 193.544 28.1311C193.195 27.3025 193.019 26.4105 193.03 25.511C193.023 24.4818 193.282 23.4682 193.78 22.5678C194.298 21.647 195.024 20.8604 195.901 20.2709C196.916 19.6122 198.033 19.1281 199.208 18.8386C200.615 18.4907 202.061 18.3234 203.51 18.3408H207.926V15.9478C207.971 15.2711 207.864 14.5928 207.614 13.9627C207.363 13.3326 206.975 12.7665 206.477 12.3059C205.23 11.3532 203.679 10.8876 202.114 10.9958C201.272 10.9896 200.433 11.1104 199.627 11.3539C198.949 11.547 198.307 11.8478 197.724 12.2447C197.209 12.6311 196.781 13.1222 196.468 13.6858C196.172 14.2199 196.022 14.8221 196.031 15.4325C196.027 15.614 195.951 15.7863 195.82 15.9122C195.69 16.0381 195.515 16.1073 195.333 16.105H194.269C194.094 16.1004 193.929 16.0273 193.808 15.9014C193.687 15.7755 193.621 15.607 193.623 15.4325C193.623 14.5019 193.848 13.5851 194.277 12.76C194.72 11.9059 195.335 11.1534 196.084 10.5504C196.892 9.90484 197.808 9.40804 198.789 9.08318C200.934 8.3988 203.233 8.3684 205.395 8.99584C206.352 9.27957 207.242 9.75169 208.013 10.3845C208.769 11.0215 209.367 11.8258 209.759 12.7338C210.188 13.7497 210.399 14.8448 210.378 15.9478V26.6202C210.378 26.7415 210.375 26.8638 210.372 26.987C210.367 27.2364 210.361 27.4897 210.378 27.7468C210.404 28.1311 210.439 28.5067 210.483 28.8473ZM198.239 29.2578C198.878 29.4859 199.551 29.5983 200.229 29.5896C201.13 29.5962 202.028 29.4846 202.899 29.2578C203.668 29.0564 204.401 28.7383 205.072 28.3145C205.709 27.909 206.282 27.4116 206.774 26.8385C207.241 26.2846 207.631 25.6707 207.935 25.0132V20.7774H203.571C202.382 20.7602 201.195 20.8892 200.037 21.1617C199.128 21.3645 198.258 21.7156 197.463 22.201C196.84 22.5855 196.314 23.1085 195.927 23.7294C195.584 24.2888 195.406 24.9335 195.412 25.5896C195.408 26.1183 195.525 26.6409 195.752 27.118C195.982 27.6043 196.312 28.036 196.721 28.3844C197.167 28.7698 197.682 29.0663 198.239 29.2578ZM257.389 11.2839C256.616 10.4179 255.667 9.72711 254.605 9.25775C253.449 8.76625 252.202 8.52464 250.947 8.54872C249.691 8.5728 248.455 8.86203 247.318 9.39749C246.146 9.96385 245.105 10.7702 244.264 11.7643C243.375 12.8212 242.686 14.0317 242.231 15.3363C241.72 16.7834 241.466 18.3084 241.48 19.8429V20.7162C241.465 22.2494 241.726 23.7727 242.248 25.214C242.734 26.5236 243.462 27.7296 244.395 28.7686C245.284 29.7605 246.365 30.5625 247.571 31.1266C248.798 31.6997 250.136 31.9977 251.49 32C252.333 31.9965 253.173 31.8969 253.994 31.7031C254.72 31.5306 255.423 31.2726 256.089 30.9345C256.706 30.6151 257.278 30.2157 257.79 29.7467C258.291 29.2978 258.736 28.7905 259.117 28.2358C259.213 28.0898 259.25 27.9121 259.219 27.7397C259.188 27.5673 259.092 27.4135 258.951 27.3101L258.2 26.7773C258.06 26.6763 257.885 26.6343 257.714 26.6604C257.543 26.6865 257.388 26.7786 257.284 26.9171C256.916 27.4028 256.488 27.8401 256.01 28.2184C255.591 28.5478 255.13 28.8208 254.64 29.0306C254.164 29.231 253.666 29.3746 253.156 29.4585C251.595 29.7474 249.982 29.5555 248.531 28.9083C247.6 28.4704 246.769 27.8462 246.088 27.0743C245.382 26.2408 244.834 25.2846 244.473 24.2533C244.074 23.1322 243.873 21.95 243.88 20.7599V20.2708H259.16C259.249 20.272 259.337 20.2554 259.419 20.222C259.501 20.1886 259.576 20.1391 259.638 20.0764C259.701 20.0138 259.75 19.9392 259.784 19.857C259.817 19.7749 259.834 19.6869 259.832 19.5983V18.3407C259.849 17.0065 259.633 15.6796 259.195 14.4193C258.806 13.2652 258.192 12.1997 257.389 11.2839ZM253.671 11.5197C254.441 11.9003 255.122 12.4389 255.67 13.1005C256.242 13.7883 256.683 14.5758 256.97 15.4237C257.232 16.2022 257.385 17.0135 257.424 17.8341H244.037C244.168 17.0453 244.391 16.2744 244.7 15.5372C245.075 14.644 245.597 13.8203 246.245 13.1005C246.849 12.4312 247.582 11.8906 248.4 11.511C249.229 11.1387 250.128 10.947 251.037 10.9485C251.945 10.95 252.843 11.1447 253.671 11.5197ZM270.593 29.521C270.735 29.6234 270.831 29.7761 270.863 29.9477L271.046 30.9608C271.076 31.1153 271.049 31.2754 270.971 31.4117C270.892 31.548 270.767 31.6515 270.619 31.7032C270.407 31.7779 270.187 31.8306 269.964 31.8604L269.327 31.9302L268.681 31.9739H268.167C267.478 31.9831 266.792 31.8859 266.133 31.6857C265.491 31.4848 264.915 31.1136 264.466 30.6115C263.994 30.0394 263.657 29.3675 263.48 28.6464C263.252 27.7181 263.146 26.7638 263.166 25.808V11.3627H259.902C259.814 11.3638 259.726 11.3472 259.644 11.3139C259.562 11.2805 259.487 11.231 259.425 11.1683C259.362 11.1056 259.313 11.031 259.279 10.9489C259.246 10.8668 259.229 10.7788 259.23 10.6902V9.6072C259.23 9.43757 259.293 9.274 259.408 9.14929C259.523 9.02458 259.681 8.94793 259.85 8.93472H263.114V3.86051C263.114 3.68215 263.185 3.5111 263.311 3.38499C263.437 3.25887 263.608 3.18802 263.786 3.18802H264.859C265.037 3.18802 265.208 3.25887 265.334 3.38499C265.46 3.5111 265.531 3.68215 265.531 3.86051V8.93472H269.702C269.88 8.93698 270.05 9.00856 270.175 9.13419C270.301 9.25981 270.372 9.42955 270.374 9.6072V10.6814C270.374 10.8598 270.304 11.0308 270.178 11.157C270.052 11.2831 269.881 11.3539 269.702 11.3539H265.557V25.808C265.537 26.5085 265.616 27.2084 265.793 27.8866C265.894 28.2822 266.078 28.6516 266.334 28.9696C266.528 29.1814 266.775 29.338 267.05 29.4237C267.725 29.5802 268.422 29.6128 269.109 29.5198C269.414 29.4936 269.746 29.4499 270.104 29.3975C270.277 29.3744 270.452 29.4186 270.593 29.521Z" fill="#80B341"/>
<path fill-rule="evenodd" clip-rule="evenodd" d="M129.203 12.8463C129.472 12.878 129.744 12.8526 130.001 12.7716C130.259 12.6907 130.497 12.5561 130.699 12.3767C130.901 12.1973 131.063 11.9772 131.173 11.7309C131.284 11.4846 131.341 11.2176 131.341 10.9476C131.341 10.6776 131.284 10.4106 131.173 10.1643C131.063 9.91805 130.901 9.69796 130.699 9.51859C130.497 9.33921 130.259 9.20462 130.001 9.12367C129.744 9.04273 129.472 9.01726 129.203 9.04896H125.068V4.86388C125.103 4.54418 125.069 4.22079 124.971 3.91477C124.872 3.60875 124.71 3.32694 124.495 3.08768C124.28 2.84842 124.017 2.65707 123.723 2.52608C123.429 2.39509 123.111 2.32739 122.789 2.32739C122.467 2.32739 122.149 2.39509 121.855 2.52608C121.561 2.65707 121.298 2.84842 121.083 3.08768C120.868 3.32694 120.706 3.60875 120.607 3.91477C120.509 4.22079 120.475 4.54418 120.51 4.86388V24.7231C120.51 29.3047 122.776 31.7717 127.052 31.7717C128.044 31.7948 129.031 31.618 129.953 31.2518C130.316 31.0998 130.628 30.8475 130.853 30.5245C131.078 30.2015 131.206 29.8212 131.222 29.428C131.232 29.1847 131.192 28.942 131.103 28.7151C131.014 28.4883 130.88 28.2823 130.707 28.1101C130.535 27.9379 130.329 27.8032 130.102 27.7146C129.875 27.6261 129.632 27.5855 129.389 27.5954C129.11 27.6092 128.835 27.6566 128.569 27.7364C128.259 27.8276 127.939 27.8751 127.616 27.8773C125.853 27.8773 125.068 26.7408 125.068 24.3002V12.8463H129.203ZM100.179 10.7491C102.441 9.18955 105.137 8.38184 107.885 8.44075C113.739 8.44075 117.266 11.7271 117.266 17.2162V29.3837C117.304 29.6799 117.278 29.9809 117.189 30.266C117.1 30.5511 116.95 30.8136 116.75 31.0354C116.549 31.2572 116.304 31.4331 116.029 31.551C115.754 31.6689 115.458 31.7261 115.159 31.7185C114.855 31.727 114.553 31.6699 114.274 31.5514C113.994 31.4329 113.743 31.2556 113.538 31.0315C113.333 30.8075 113.179 30.542 113.086 30.2532C112.993 29.9643 112.963 29.6587 112.999 29.3573V28.1943C112.174 29.3984 111.055 30.3721 109.748 31.0228C108.441 31.6735 106.989 31.9797 105.531 31.9124C101.484 31.9124 97.4014 29.7802 97.4014 25.0048C97.4014 18.3704 105.16 17.4364 112.787 17.4364V16.943C112.787 13.9562 110.838 12.1941 107.444 12.1941C105.587 12.2198 103.783 12.8166 102.277 13.9033C101.879 14.196 101.404 14.3646 100.911 14.3879C100.673 14.3881 100.438 14.3403 100.219 14.2474C100 14.1544 99.8027 14.0183 99.638 13.8471C99.4733 13.676 99.3449 13.4733 99.2606 13.2513C99.1762 13.0293 99.1376 12.7926 99.1471 12.5553C99.1462 12.1904 99.2409 11.8316 99.4219 11.5147C99.6029 11.1978 99.8638 10.9339 100.179 10.7491ZM112.857 20.8197H111.852C107.673 20.8197 102.118 21.2426 102.171 24.9079C102.171 28.0092 105.539 28.2559 106.58 28.2559C110.398 28.2559 112.857 25.7537 112.857 21.877V20.8197ZM61.1709 9.53877C62.441 8.80578 63.8846 8.42662 65.3512 8.44081C71.5142 8.44081 73.7096 13.1457 73.7273 17.5422V29.1987C73.7619 29.5208 73.7283 29.8466 73.6287 30.1549C73.5291 30.4632 73.3656 30.747 73.149 30.988C72.9323 31.229 72.6673 31.4217 72.3713 31.5537C72.0752 31.6856 71.7546 31.7538 71.4305 31.7538C71.1063 31.7538 70.7857 31.6856 70.4896 31.5537C70.1936 31.4217 69.9286 31.229 69.712 30.988C69.4953 30.747 69.3319 30.4632 69.2322 30.1549C69.1326 29.8466 69.099 29.5208 69.1336 29.1987V18.9872C69.1336 14.5113 67.6171 12.3351 64.1961 12.3351C60.7752 12.3351 58.3858 15.2867 58.3858 19.507V29.1987C58.4137 29.5177 58.375 29.8389 58.2721 30.142C58.1691 30.4452 58.0042 30.7236 57.7878 30.9597C57.5714 31.1957 57.3082 31.3842 57.015 31.5131C56.7218 31.6421 56.4049 31.7086 56.0845 31.7086C55.7642 31.7086 55.4473 31.6421 55.1541 31.5131C54.8609 31.3842 54.5977 31.1957 54.3813 30.9597C54.1649 30.7236 54 30.4452 53.897 30.142C53.7941 29.8389 53.7554 29.5177 53.7833 29.1987V11.1104C53.7424 10.8024 53.7689 10.4891 53.8608 10.1923C53.9527 9.8955 54.1079 9.6221 54.3158 9.39097C54.5236 9.15984 54.7791 8.97647 55.0647 8.85351C55.3502 8.73055 55.6591 8.67091 55.9699 8.6787C56.3667 8.6787 58.1301 8.79324 58.1301 11.1104V12.6082C58.8507 11.3317 59.9008 10.2717 61.1709 9.53877ZM28.708 20.2472C28.708 13.4101 33.5573 8.44091 40.2406 8.44091C46.0598 8.44091 50.0274 11.9475 50.8386 17.8066C50.9131 18.2904 50.9456 18.7798 50.9356 19.2692C50.9356 20.8463 50.1332 21.6128 48.4933 21.6128H33.4163C33.5336 23.3937 34.331 25.0614 35.6437 26.2715C36.9564 27.4816 38.6841 28.1416 40.4698 28.1151C41.5167 28.1244 42.5546 27.9205 43.5201 27.5161C44.4857 27.1117 45.3588 26.5151 46.0862 25.7627C46.2929 25.5395 46.542 25.3599 46.8191 25.2343C47.0962 25.1087 47.3956 25.0397 47.6997 25.0314C47.9586 25.0192 48.2172 25.0604 48.4594 25.1525C48.7016 25.2446 48.9222 25.3856 49.1075 25.5666C49.2928 25.7476 49.4388 25.9649 49.5364 26.2047C49.634 26.4446 49.6811 26.7021 49.6747 26.9609C49.6488 27.5856 49.3874 28.1773 48.9429 28.6173C47.8423 29.735 46.52 30.6103 45.0607 31.1869C43.6015 31.7635 42.0377 32.0287 40.4698 31.9654C33.5044 31.9654 28.708 27.0843 28.708 20.2472ZM46.3331 18.1414C46.192 14.4145 43.8644 12.1061 40.2406 12.1061C38.5518 12.0728 36.9121 12.6747 35.6465 13.7925C34.3809 14.9104 33.5818 16.4625 33.4074 18.1414H46.3331ZM94.5177 8.67894C93.9864 8.68747 93.473 8.87208 93.0581 9.20378C92.6431 9.53548 92.3502 9.99548 92.2252 10.5115L85.9299 26.3708L79.6875 10.5115C79.5552 9.99119 79.2542 9.52922 78.8315 9.19771C78.4089 8.8662 77.8883 8.68379 77.351 8.67894C76.7539 8.66712 76.1764 8.89231 75.745 9.30517C75.3137 9.71804 75.0637 10.2849 75.0498 10.8816C75.0532 11.3291 75.1524 11.7707 75.3408 12.1767L82.5707 29.243C83.4524 31.2959 84.8455 31.7276 85.8858 31.7276C86.9263 31.7276 88.337 31.2959 89.201 29.243L96.4838 12.0886C96.6575 11.6905 96.7533 11.2628 96.766 10.8287C96.7663 10.538 96.7076 10.2503 96.5935 9.98303C96.4793 9.71568 96.3121 9.47423 96.102 9.27328C95.8918 9.07234 95.6431 8.91606 95.3708 8.81391C95.0984 8.71175 94.8082 8.66584 94.5177 8.67894ZM132.404 20.1503C132.404 13.366 137.456 8.44091 144.404 8.44091C151.387 8.44091 156.457 13.366 156.457 20.1503C156.477 21.7268 156.177 23.291 155.575 24.7486C154.974 26.2061 154.083 27.5268 152.957 28.6309C151.83 29.735 150.492 30.5997 149.022 31.1728C147.552 31.7459 145.981 32.0155 144.404 31.9654C141.227 32.0173 138.156 30.8215 135.852 28.635C134.736 27.5247 133.856 26.2011 133.264 24.7434C132.671 23.2856 132.379 21.7234 132.404 20.1503ZM137.148 20.1327C137.148 24.0887 139.634 28.0623 144.404 28.0623C147.905 28.0623 151.652 25.5512 151.652 20.1503C151.652 14.7493 147.896 12.2735 144.404 12.2735C140.913 12.2735 137.148 14.7317 137.148 20.1327Z" fill="#141614"/>
<path d="M20.8433 6.35301C17.149 2.02697 5.19318 10.4147 5.29017 21.2078C5.2879 21.3403 5.23422 21.4667 5.14046 21.5604C5.0467 21.6541 4.92018 21.7077 4.7876 21.71C4.70052 21.709 4.61514 21.6859 4.53953 21.6427C4.46393 21.5995 4.4006 21.5378 4.35557 21.4633C3.6567 19.9527 3.29565 18.3081 3.29753 16.6438C3.29664 15.3919 3.49913 14.1481 3.89709 12.961C3.93174 12.8587 3.92987 12.7476 3.8918 12.6466C3.85373 12.5456 3.7818 12.4609 3.68826 12.4069C3.59472 12.3529 3.48535 12.3329 3.37874 12.3504C3.27214 12.3679 3.1749 12.4218 3.10356 12.5028C1.58642 14.1575 0.583654 16.2174 0.217452 18.4315C-0.14875 20.6457 0.137423 22.9185 1.0411 24.9729C1.94478 27.0274 3.42694 28.7749 5.30699 30.0024C7.18703 31.2299 9.38378 31.8845 11.6296 31.8863C27.9057 31.5603 24.1408 10.2121 20.8433 6.35301Z" fill="#80B341"/>
</g>
</svg>
