<svg id="Q" data-name="Q" xmlns="http://www.w3.org/2000/svg" viewBox="0 0 600 440">
  <defs>
    <style>.tan{fill:#e1d8c2;}</style>
  </defs>
  <path class="tan" d="
    M0 0 h600 v440 h-600
    M175.91,261.15q-21.61,8.75-38.17,35T119.8,349.38q-.7,11.21,8.58,11.2,6.44,0,8.57-12.6a71.78,71.78,0,0,1,21.69-41.67q17.84-17.16,39.19-17.15,24.48,0,77,27.73l58.77,31.25q9.09,4.91,60.18,34.76,57,33.35,99,33.35,31.13,0,64.9-14.07t33.06-26.94q-.35-5.57-6.3-5.2-3.51.34-9.8,3.85-21.72,11.89-51.1,11.9-19.26,0-50-19.69l-26.6-17.23-32.56-21.44q-14-8.44-49.34-26.37,47.59-9.46,82.94-29.08,55.29-31.53,87.15-90t31.85-129.3A308.22,308.22,0,0,0,562.58,0H505.06q11.41,40.37,11.43,86.63,0,88-47.52,142.27t-124.7,54.3q-75.06,0-135.74-55-81-73.92-81-202.88,0-13,1-25.31H76.86a306.58,306.58,0,0,0-5,56.32Q71.83,181,175.91,261.15Z
    "
  />
</svg>
