<svg id="Layer_1" data-name="Layer 1" xmlns="http://www.w3.org/2000/svg" viewBox="0 0 600 440"><defs><style>.cls-1{fill:#e1d8c2;}</style></defs>
<path class="cls-1" d="M0,0V440H600V0ZM557.66,404.18q-33.76,14.07-64.9,14.07-42,0-99-33.35-51.09-29.85-60.18-34.76L274.8,318.89q-52.49-27.74-77-27.73-21.35,0-39.19,17.15A71.78,71.78,0,0,0,137,350q-2.14,12.6-8.57,12.6-9.28,0-8.58-11.2,1.4-27,17.94-53.22t38.17-35Q71.82,183,71.83,58.32A306.58,306.58,0,0,1,76.86,2h51.67q-1,12.3-1,25.31,0,129,81,202.88,60.67,55,135.74,55,77.16,0,124.7-54.3T516.49,88.63q0-46.27-11.43-86.63h57.52a308.22,308.22,0,0,1,4.33,52.64q0,70.79-31.85,129.3t-87.15,90Q412.55,293.6,365,303.06q35.34,17.94,49.34,26.37l32.56,21.44,26.6,17.23q30.79,19.69,50,19.69,29.38,0,51.1-11.9,6.3-3.51,9.8-3.85,6-.36,6.3,5.2Q591.43,390.11,557.66,404.18Z"/></svg>
