<svg
  id="letter-Q" data-name="The Letter Q"
  xmlns="http://www.w3.org/2000/svg"
  viewBox="0 0 600 440"
>
  <defs>
    <style>.tan{fill:#e1d8c2;}</style>
  </defs>
  <path class="tan" d="M208.53,228.19q60.67,55,135.74,55,77.16,0,124.7-54.3T516.49,86.63q0-46.27-11.43-86.63H128.53q-1,12.3-1,25.31Q127.5,154.26,208.53,228.19Z"/>
  <path class="tan" d="M562.58,0a308.22,308.22,0,0,1,4.33,52.64q0,70.79-31.85,129.3t-87.15,90Q412.55,291.6,365,301.06q35.34,17.94,49.34,26.37l32.56,21.44,26.6,17.23q30.79,19.69,50,19.69,29.38,0,51.1-11.9,6.3-3.51,9.8-3.85,6-.36,6.3,5.2.71,12.87-33.06,26.94t-64.9,14.07q-42,0-99-33.35-51.09-29.85-60.18-34.76L274.8,316.89q-52.49-27.74-77-27.73-21.35,0-39.19,17.15A71.78,71.78,0,0,0,137,348q-2.14,12.6-8.57,12.6-9.28,0-8.58-11.2,1.4-27,17.94-53.22t38.17-35Q71.82,181,71.83,56.32A306.58,306.58,0,0,1,76.86,0H0V440H600V0Z"/>
</svg>
