<svg version="1.1" id="Layer_1" xmlns="http://www.w3.org/2000/svg" xmlns:xlink="http://www.w3.org/1999/xlink" x="0px" y="0px"
	 viewBox="0 0 20 20" style="enable-background:new 0 0 20 20;" xml:space="preserve">
<style type="text/css">
	.st0{fill-rule:evenodd;clip-rule:evenodd;}
	.st1{fill:none;}
</style>
<circle class="st0" cx="3" cy="3" r="2"/>
<rect x="3" y="2" transform="matrix(-1 -4.750790e-11 4.750790e-11 -1 23 6)" class="st0" width="17" height="2"/>
<line class="st1" x1="7" y1="18" x2="6" y2="16"/>
<rect x="6" y="4" class="st0" width="1" height="1"/>
<rect x="9" y="4" class="st0" width="1" height="1"/>
<rect x="12" y="4" class="st0" width="1" height="1"/>
<rect x="15" y="4" class="st0" width="1" height="1"/>
<rect x="18" y="4" class="st0" width="1" height="1"/>
<path class="st0" d="M11.7,20c0.6-2.5,1-5.2,1.2-8C17,11.2,20,8.3,20,5H6.2C5.6,5,5,5.7,5,6.5L5.5,20H11.7z"/>
</svg>
